<svg width="24" height="25" viewBox="0 0 24 25" fill="none" xmlns="http://www.w3.org/2000/svg">
<path fill-rule="evenodd" clip-rule="evenodd" d="M16 2.5H8C4.68629 2.5 2 5.18629 2 8.5V16.5C2 19.8137 4.68629 22.5 8 22.5H16C19.3137 22.5 22 19.8137 22 16.5V8.5C22 5.18629 19.3137 2.5 16 2.5ZM4 8.5C4 6.29086 5.79086 4.5 8 4.5H16C18.2091 4.5 20 6.29086 20 8.5V16.5C20 18.7091 18.2091 20.5 16 20.5H8C5.79086 20.5 4 18.7091 4 16.5V8.5ZM12 17.5C9.23858 17.5 7 15.2614 7 12.5C7 9.73858 9.23858 7.5 12 7.5C14.7614 7.5 17 9.73858 17 12.5C17 15.2614 14.7614 17.5 12 17.5ZM12 15.5C13.6569 15.5 15 14.1569 15 12.5C15 10.8431 13.6569 9.5 12 9.5C10.3431 9.5 9 10.8431 9 12.5C9 14.1569 10.3431 15.5 12 15.5ZM18 7.5C18 8.05228 17.5523 8.5 17 8.5C16.4477 8.5 16 8.05228 16 7.5C16 6.94772 16.4477 6.5 17 6.5C17.5523 6.5 18 6.94772 18 7.5Z" fill="white"/>
</svg>
