<svg width="24" height="25" viewBox="0 0 24 25" fill="none" xmlns="http://www.w3.org/2000/svg">
<path fill-rule="evenodd" clip-rule="evenodd" d="M21.1195 5.00827L22.5343 5.17349L21.8983 6.448C21.5882 7.06953 21.2778 7.69105 20.967 8.31258C20.9302 8.44422 20.8654 8.55962 20.7697 8.70987C20.7296 8.77265 20.5929 8.97236 20.5865 8.98194C20.5504 9.03608 20.5237 9.07878 20.5045 9.11299V11.5015C20.5045 17.6135 14.5895 21.4974 9.00354 21.4974C7.86051 21.4974 6.99207 21.4427 5.99765 21.2257C4.36115 20.8685 3.14327 20.1587 2.58597 18.918L2.01221 17.6407L3.40659 17.5124C4.66801 17.3964 5.76169 17.1561 6.60159 16.8343C4.29577 16.4635 3.0036 15.4508 3.0036 13.5489V12.5489H4.0036C4.22331 12.5489 4.42143 12.5311 4.59854 12.4983C2.868 11.4636 2.00122 9.80379 2.00122 7.50152C2.00103 7.4034 2.00103 7.40339 2.00044 7.29847C1.99394 6.13803 2.05627 5.51797 2.37395 4.72659C2.57754 4.21941 2.87183 3.74988 3.2679 3.31967L4.02251 2.5L4.75617 3.33847C7.17394 6.10161 9.56395 7.77795 12.0042 7.98072C12.0146 5.43105 13.9415 3.50152 16.5043 3.50152C17.6991 3.50152 18.7828 3.95501 19.6345 4.77273C20.1006 4.86851 20.5957 4.94709 21.1195 5.00827ZM18.9086 6.66202L18.6021 6.5926L18.3904 6.36028C17.8785 5.79855 17.2359 5.50152 16.5043 5.50152C15.0414 5.50152 14.0041 6.54391 14.0041 8.00152C14.0041 8.23974 13.998 8.38942 13.9683 8.58615C13.8499 9.37116 13.4096 10.0015 12.5041 10.0015C9.50607 10.0015 6.80136 8.39542 4.16389 5.65228C4.02792 6.06561 3.99595 6.49047 4.00041 7.28727C4.00101 7.39384 4.00101 7.39384 4.00122 7.50152C4.00122 9.54953 4.83093 10.6698 6.79547 11.2942L7.49255 11.5158V12.2472C7.49255 13.1342 6.65222 13.9691 5.42268 14.3431C5.98631 14.7708 7.139 15.0015 9.00389 15.0015H10.0039V16.0015C10.0039 17.4343 8.35762 18.5561 5.87075 19.1419C6.68178 19.3903 7.76166 19.4974 9.00354 19.4974C13.618 19.4974 18.5045 16.2888 18.5045 11.5015V9.00152C18.5045 8.70774 18.5897 8.45273 18.7311 8.18759C18.7865 8.08393 18.8474 7.98509 18.9225 7.87237C18.9367 7.85115 18.9892 7.77426 19.0309 7.71279L19.1101 7.55429C19.2386 7.29745 19.3669 7.04061 19.4952 6.78377C19.2958 6.74599 19.1003 6.70541 18.9086 6.66202Z" fill="white"/>
</svg>
